<svg width="20" height="11" fill="none" xmlns="http://www.w3.org/2000/svg"><path d="M19.9 10v-.2c-.4-.6-1-1.3-2-2.2h-.1l-.9-.9c-.2-.2-.2-.5-.1-.8 0-.2.4-.6 1-1.3l.6-.9c1.2-1.5 1.7-2.5 1.6-3l-.4-.2h-3.7-.2-.1l-.1.1-.1.1-.1.2a16.1 16.1 0 01-2.4 4l-.4.4h-.3-.1a.7.7 0 01-.3-.2 1 1 0 01-.1-.4 4.2 4.2 0 010-.9 14.4 14.4 0 000-1.3 140.1 140.1 0 01-.1-2l-.2-.2L11 0 9.6 0a7 7 0 00-2.5.2l-.4.3v.3c.4 0 .7.2.9.4v.1l.2.5v.7a7.5 7.5 0 01-.2 2.6v.2h-.8l-.4-.4-.5-.7-.6-1-.2-.4A24.7 24.7 0 014 .7L3.7.4H.7C.4.5.2.5 0 .7L0 1v.3a32.6 32.6 0 004.8 7.6l.3.2.7.6 1.1.6a6 6 0 002.9.7H11c.2 0 .4 0 .5-.2l.2-.2v-.3-.8L12 9a1.3 1.3 0 01.4-.4h.7l.6.7a18.1 18.1 0 001.5 1.4l.2.1.5.2H19.7l.3-.4v-.3l-.1-.3z" fill="#000"/></svg>